<svg xmlns="http://www.w3.org/2000/svg" viewBox="0 0 780 256">
<!-- exploration lockup: live text -->
<g transform="translate(10 28) scale(0.78)"><path d="M34 96 Q128 30 222 96" fill="none" stroke="#000" stroke-width="24" stroke-linecap="round"/>
 <path fill-rule="evenodd" d="M128 68 C176 68 190 120 190 156 C190 202 164 236 128 236 C92 236 66 202 66 156 C66 120 80 68 128 68 Z
 M104 120 C108.48 143.52 108.48 143.52 132 148 C108.48 152.48 108.48 152.48 104 176 C99.52 152.48 99.52 152.48 76 148 C99.52 143.52 99.52 143.52 104 120 Z
 M156 200 A11 11 0 1 0 156 200.01 Z"/></g>
<text x="276" y="150" font-family="'Segoe UI Variable Display','Segoe UI',Inter,sans-serif" font-weight="600" font-size="100" letter-spacing="-2" fill="#000">Kinshoko</text>
<text x="282" y="204" font-family="'Yu Gothic UI','Noto Sans JP',sans-serif" font-weight="500" font-size="30" letter-spacing="16" fill="#000">禁書庫</text>
</svg>
